<?xml version="1.0" encoding="UTF-8"?>
<svg xmlns="http://www.w3.org/2000/svg" viewBox="0 0 800 450" role="img" aria-label="Laponttes">
  <defs>
    <linearGradient id="bg" x1="0" y1="0" x2="800" y2="450" gradientUnits="userSpaceOnUse">
      <stop offset="0%" stop-color="#17120F" />
      <stop offset="100%" stop-color="#EA580C" />
    </linearGradient>
    <filter id="glow" x="-20%" y="-20%" width="140%" height="140%">
      <feGaussianBlur stdDeviation="12" result="blur" />
      <feMerge><feMergeNode in="blur" /><feMergeNode in="SourceGraphic" /></feMerge>
    </filter>
  </defs>
  <rect width="800" height="450" fill="url(#bg)" />
  <path d="M 140 292 Q 146 280 152 292 T 164 292" fill="none" stroke="#FB923C" stroke-width="4" opacity="0.24" /><rect x="238" y="59.5" width="5" height="11" fill="#FB923C" opacity="0.15" /><rect x="245.33333333333334" y="54" width="5" height="15.399999999999999" fill="#FB923C" opacity="0.12" /><rect x="251.75" y="61.333333333333336" width="5" height="12.100000000000001" fill="#FB923C" opacity="0.135" /><rect x="344" y="108" width="4" height="20" fill="#FB923C" opacity="0.26" /><rect x="336" y="116" width="20" height="4" fill="#FB923C" opacity="0.26" /><circle cx="443" cy="171" r="9" fill="#FB923C" opacity="0.16999999999999998" /><polygon points="540,216 548,224 540,232 532,224" fill="#FB923C" opacity="0.28" /><rect x="612" y="252" width="50" height="50" fill="none" stroke="#FB923C" stroke-width="3" opacity="0.19" /><line x1="612" y1="277" x2="662" y2="277" stroke="#FB923C" stroke-width="2" opacity="0.19" /><line x1="637" y1="252" x2="637" y2="302" stroke="#FB923C" stroke-width="2" opacity="0.19" /><path d="M 70 330 Q 82 306 94 330 T 118 330" fill="none" stroke="#FB923C" stroke-width="4" opacity="0.3" /><rect x="168" y="91.5" width="5" height="23" fill="#FB923C" opacity="0.21" /><rect x="183.33333333333334" y="80" width="5" height="32.199999999999996" fill="#FB923C" opacity="0.168" /><rect x="196.75" y="95.33333333333333" width="5" height="25.3" fill="#FB923C" opacity="0.189" />
  <circle cx="680" cy="90" r="120" fill="#FB923C" opacity="0.12" />
  <circle cx="120" cy="360" r="90" fill="#FB923C" opacity="0.08" />
  <g filter="url(#glow)">
    <text x="56" y="250" fill="#ffffff" font-family="system-ui, -apple-system, sans-serif" font-size="88" font-weight="900" letter-spacing="-4">LA</text>
  </g>
  <text x="56" y="310" fill="#FB923C" font-family="system-ui, -apple-system, sans-serif" font-size="28" font-weight="700">Laponttes</text>
  <g opacity="0.9"><rect x="672" y="346" width="5" height="28" fill="#FB923C" opacity="0.85" /><rect x="690.6666666666666" y="332" width="5" height="39.199999999999996" fill="#FB923C" opacity="0.68" /><rect x="707" y="350.6666666666667" width="5" height="30.800000000000004" fill="#FB923C" opacity="0.765" /></g>
</svg>
