<?xml version="1.0" encoding="UTF-8"?>
<svg xmlns="http://www.w3.org/2000/svg" viewBox="0 0 800 450" role="img" aria-label="prueba-gradiweb">
  <defs>
    <linearGradient id="bg" x1="0" y1="0" x2="800" y2="450" gradientUnits="userSpaceOnUse">
      <stop offset="0%" stop-color="#042f2e" />
      <stop offset="100%" stop-color="#0d9488" />
    </linearGradient>
    <filter id="glow" x="-20%" y="-20%" width="140%" height="140%">
      <feGaussianBlur stdDeviation="12" result="blur" />
      <feMerge><feMergeNode in="blur" /><feMergeNode in="SourceGraphic" /></feMerge>
    </filter>
  </defs>
  <rect width="800" height="450" fill="url(#bg)" />
  <rect x="602" y="262" width="22" height="22" fill="none" stroke="#5eead4" stroke-width="3" opacity="0.25" /><line x1="602" y1="273" x2="624" y2="273" stroke="#5eead4" stroke-width="2" opacity="0.25" /><line x1="613" y1="262" x2="613" y2="284" stroke="#5eead4" stroke-width="2" opacity="0.25" /><path d="M 700 326 Q 705 316 710 326 T 720 326" fill="none" stroke="#5eead4" stroke-width="4" opacity="0.16" /><rect x="158" y="94.5" width="5" height="9" fill="#5eead4" opacity="0.27" /><rect x="164" y="90" width="5" height="12.6" fill="#5eead4" opacity="0.21600000000000003" /><rect x="169.25" y="96" width="5" height="9.9" fill="#5eead4" opacity="0.24300000000000002" /><rect x="262" y="144" width="4" height="16" fill="#5eead4" opacity="0.18" /><rect x="256" y="150" width="16" height="4" fill="#5eead4" opacity="0.18" /><circle cx="361" cy="205" r="25" fill="#5eead4" opacity="0.29000000000000004" /><polygon points="458,234 482,258 458,282 434,258" fill="#5eead4" opacity="0.2" /><rect x="532" y="288" width="46" height="46" fill="none" stroke="#5eead4" stroke-width="3" opacity="0.31" /><line x1="532" y1="311" x2="578" y2="311" stroke="#5eead4" stroke-width="2" opacity="0.31" /><line x1="555" y1="288" x2="555" y2="334" stroke="#5eead4" stroke-width="2" opacity="0.31" /><path d="M 630 84 Q 641 62 652 84 T 674 84" fill="none" stroke="#5eead4" stroke-width="4" opacity="0.22" />
  <circle cx="680" cy="90" r="120" fill="#5eead4" opacity="0.12" />
  <circle cx="120" cy="360" r="90" fill="#5eead4" opacity="0.08" />
  <g filter="url(#glow)">
    <text x="56" y="250" fill="#ffffff" font-family="system-ui, -apple-system, sans-serif" font-size="88" font-weight="900" letter-spacing="-4">PG</text>
  </g>
  <text x="56" y="310" fill="#5eead4" font-family="system-ui, -apple-system, sans-serif" font-size="28" font-weight="700">prueba-gradiweb</text>
  <g opacity="0.9"><rect x="698" y="332" width="4" height="56" fill="#5eead4" opacity="0.85" /><rect x="672" y="358" width="56" height="4" fill="#5eead4" opacity="0.85" /></g>
</svg>
