<?xml version="1.0" encoding="UTF-8"?>
<svg xmlns="http://www.w3.org/2000/svg" viewBox="0 0 800 450" role="img" aria-label="Rave Clud">
  <defs>
    <linearGradient id="bg" x1="0" y1="0" x2="800" y2="450" gradientUnits="userSpaceOnUse">
      <stop offset="0%" stop-color="#052e16" />
      <stop offset="100%" stop-color="#16a34a" />
    </linearGradient>
    <filter id="glow" x="-20%" y="-20%" width="140%" height="140%">
      <feGaussianBlur stdDeviation="12" result="blur" />
      <feMerge><feMergeNode in="blur" /><feMergeNode in="SourceGraphic" /></feMerge>
    </filter>
  </defs>
  <rect width="800" height="450" fill="url(#bg)" />
  <rect x="456" y="98" width="4" height="40" fill="#86efac" opacity="0.3" /><rect x="438" y="116" width="40" height="4" fill="#86efac" opacity="0.3" /><circle cx="555" cy="171" r="19" fill="#86efac" opacity="0.21" /><polygon points="652,206 670,224 652,242 634,224" fill="#86efac" opacity="0.12" /><rect x="92" y="260" width="34" height="34" fill="none" stroke="#86efac" stroke-width="3" opacity="0.22999999999999998" /><line x1="92" y1="277" x2="126" y2="277" stroke="#86efac" stroke-width="2" opacity="0.22999999999999998" /><line x1="109" y1="260" x2="109" y2="294" stroke="#86efac" stroke-width="2" opacity="0.22999999999999998" /><path d="M 190 330 Q 198 314 206 330 T 222 330" fill="none" stroke="#86efac" stroke-width="4" opacity="0.13999999999999999" /><rect x="288" y="95.5" width="5" height="15" fill="#86efac" opacity="0.25" /><rect x="298" y="88" width="5" height="21" fill="#86efac" opacity="0.2" /><rect x="306.75" y="98" width="5" height="16.5" fill="#86efac" opacity="0.225" /><rect x="398" y="142" width="4" height="28" fill="#86efac" opacity="0.16" /><rect x="386" y="154" width="28" height="4" fill="#86efac" opacity="0.16" /><circle cx="497" cy="209" r="13" fill="#86efac" opacity="0.27" />
  <circle cx="680" cy="90" r="120" fill="#86efac" opacity="0.12" />
  <circle cx="120" cy="360" r="90" fill="#86efac" opacity="0.08" />
  <g filter="url(#glow)">
    <text x="56" y="250" fill="#ffffff" font-family="system-ui, -apple-system, sans-serif" font-size="88" font-weight="900" letter-spacing="-4">RC</text>
  </g>
  <text x="56" y="310" fill="#86efac" font-family="system-ui, -apple-system, sans-serif" font-size="28" font-weight="700">Rave Clud</text>
  <g opacity="0.9"><rect x="698" y="332" width="4" height="56" fill="#86efac" opacity="0.85" /><rect x="672" y="358" width="56" height="4" fill="#86efac" opacity="0.85" /></g>
</svg>
