<?xml version="1.0" encoding="UTF-8"?>
<svg xmlns="http://www.w3.org/2000/svg" viewBox="0 0 800 450" role="img" aria-label="Triki game">
  <defs>
    <linearGradient id="bg" x1="0" y1="0" x2="800" y2="450" gradientUnits="userSpaceOnUse">
      <stop offset="0%" stop-color="#0f172a" />
      <stop offset="100%" stop-color="#6366f1" />
    </linearGradient>
    <filter id="glow" x="-20%" y="-20%" width="140%" height="140%">
      <feGaussianBlur stdDeviation="12" result="blur" />
      <feMerge><feMergeNode in="blur" /><feMergeNode in="SourceGraphic" /></feMerge>
    </filter>
  </defs>
  <rect width="800" height="450" fill="url(#bg)" />
  <rect x="76" y="182.5" width="5" height="13" fill="#a5b4fc" opacity="0.21" /><rect x="84.66666666666667" y="176" width="5" height="18.2" fill="#a5b4fc" opacity="0.168" /><rect x="92.25" y="184.66666666666666" width="5" height="14.3" fill="#a5b4fc" opacity="0.189" /><rect x="184" y="230" width="4" height="24" fill="#a5b4fc" opacity="0.12" /><rect x="174" y="240" width="24" height="4" fill="#a5b4fc" opacity="0.12" /><circle cx="283" cy="295" r="11" fill="#a5b4fc" opacity="0.22999999999999998" /><polygon points="380,58 390,68 380,78 370,68" fill="#a5b4fc" opacity="0.13999999999999999" /><rect x="468" y="112" width="18" height="18" fill="none" stroke="#a5b4fc" stroke-width="3" opacity="0.25" /><line x1="468" y1="121" x2="486" y2="121" stroke="#a5b4fc" stroke-width="2" opacity="0.25" /><line x1="477" y1="112" x2="477" y2="130" stroke="#a5b4fc" stroke-width="2" opacity="0.25" /><path d="M 566 174 Q 570 166 574 174 T 582 174" fill="none" stroke="#a5b4fc" stroke-width="4" opacity="0.16" /><rect x="646" y="214.5" width="5" height="25" fill="#a5b4fc" opacity="0.27" /><rect x="662.6666666666666" y="202" width="5" height="35" fill="#a5b4fc" opacity="0.21600000000000003" /><rect x="677.25" y="218.66666666666666" width="5" height="27.500000000000004" fill="#a5b4fc" opacity="0.24300000000000002" /><rect x="126" y="256" width="4" height="48" fill="#a5b4fc" opacity="0.18" /><rect x="104" y="278" width="48" height="4" fill="#a5b4fc" opacity="0.18" />
  <circle cx="680" cy="90" r="120" fill="#a5b4fc" opacity="0.12" />
  <circle cx="120" cy="360" r="90" fill="#a5b4fc" opacity="0.08" />
  <g filter="url(#glow)">
    <text x="56" y="250" fill="#ffffff" font-family="system-ui, -apple-system, sans-serif" font-size="88" font-weight="900" letter-spacing="-4">TG</text>
  </g>
  <text x="56" y="310" fill="#a5b4fc" font-family="system-ui, -apple-system, sans-serif" font-size="28" font-weight="700">Triki game</text>
  <g opacity="0.9"><rect x="698" y="332" width="4" height="56" fill="#a5b4fc" opacity="0.85" /><rect x="672" y="358" width="56" height="4" fill="#a5b4fc" opacity="0.85" /></g>
</svg>
