<?xml version="1.0" encoding="UTF-8"?>
<svg xmlns="http://www.w3.org/2000/svg" viewBox="0 0 800 450" role="img" aria-label="Youtube clone">
  <defs>
    <linearGradient id="bg" x1="0" y1="0" x2="800" y2="450" gradientUnits="userSpaceOnUse">
      <stop offset="0%" stop-color="#17120F" />
      <stop offset="100%" stop-color="#EA580C" />
    </linearGradient>
    <filter id="glow" x="-20%" y="-20%" width="140%" height="140%">
      <feGaussianBlur stdDeviation="12" result="blur" />
      <feMerge><feMergeNode in="blur" /><feMergeNode in="SourceGraphic" /></feMerge>
    </filter>
  </defs>
  <rect width="800" height="450" fill="url(#bg)" />
  <polygon points="80,250 90,260 80,270 70,260" fill="#FB923C" opacity="0.12" /><rect x="168" y="304" width="18" height="18" fill="none" stroke="#FB923C" stroke-width="3" opacity="0.22999999999999998" /><line x1="168" y1="313" x2="186" y2="313" stroke="#FB923C" stroke-width="2" opacity="0.22999999999999998" /><line x1="177" y1="304" x2="177" y2="322" stroke="#FB923C" stroke-width="2" opacity="0.22999999999999998" /><path d="M 266 86 Q 270 78 274 86 T 282 86" fill="none" stroke="#FB923C" stroke-width="4" opacity="0.13999999999999999" /><rect x="346" y="126.5" width="5" height="25" fill="#FB923C" opacity="0.25" /><rect x="362.6666666666667" y="114" width="5" height="35" fill="#FB923C" opacity="0.2" /><rect x="377.25" y="130.66666666666666" width="5" height="27.500000000000004" fill="#FB923C" opacity="0.225" /><rect x="466" y="168" width="4" height="48" fill="#FB923C" opacity="0.16" /><rect x="444" y="190" width="48" height="4" fill="#FB923C" opacity="0.16" /><circle cx="565" cy="245" r="23" fill="#FB923C" opacity="0.27" /><polygon points="662,276 684,298 662,320 640,298" fill="#FB923C" opacity="0.18" /><rect x="98" y="50" width="42" height="42" fill="none" stroke="#FB923C" stroke-width="3" opacity="0.29000000000000004" /><line x1="98" y1="71" x2="140" y2="71" stroke="#FB923C" stroke-width="2" opacity="0.29000000000000004" /><line x1="119" y1="50" x2="119" y2="92" stroke="#FB923C" stroke-width="2" opacity="0.29000000000000004" />
  <circle cx="680" cy="90" r="120" fill="#FB923C" opacity="0.12" />
  <circle cx="120" cy="360" r="90" fill="#FB923C" opacity="0.08" />
  <g filter="url(#glow)">
    <text x="56" y="250" fill="#ffffff" font-family="system-ui, -apple-system, sans-serif" font-size="88" font-weight="900" letter-spacing="-4">YC</text>
  </g>
  <text x="56" y="310" fill="#FB923C" font-family="system-ui, -apple-system, sans-serif" font-size="28" font-weight="700">Youtube clone</text>
  <g opacity="0.9"><rect x="698" y="332" width="4" height="56" fill="#FB923C" opacity="0.85" /><rect x="672" y="358" width="56" height="4" fill="#FB923C" opacity="0.85" /></g>
</svg>
